<svg width="50" height="50" viewBox="0 0 50 50" fill="none" xmlns="http://www.w3.org/2000/svg">
<g clip-path="url(#clip0)">
<path d="M13.5869 10.3252H11.4131C9.24473 10.3252 7.42295 11.7528 6.7835 13.7104C2.93906 14.3643 0 17.7103 0 21.7383C0 25.7663 2.93906 29.1123 6.7835 29.7662C7.42295 31.7237 9.24473 33.1514 11.4131 33.1514H13.587C15.5583 33.1514 17.5633 33.2454 19.5652 33.416V10.0605C17.5633 10.2311 15.5583 10.3252 13.5869 10.3252ZM6.52178 26.3503C4.62383 25.6773 3.26094 23.8639 3.26094 21.7382C3.26094 19.6125 4.62383 17.799 6.52178 17.126V26.3503Z" fill="black"/>
<path d="M22.185 43.8433L21.0169 36.8363C18.5398 36.5644 16.0373 36.413 13.587 36.413H11.4132C11.3034 36.413 11.1967 36.4008 11.0879 36.3965L12.6073 45.3804C13.0064 47.7422 15.035 49.4564 17.4296 49.4564C20.4087 49.4564 22.6744 46.7788 22.185 43.8433Z" fill="black"/>
<path d="M46.7394 0.542969C44.9384 0.542969 43.4785 2.00283 43.4785 3.80381V39.6733C43.4785 41.4743 44.9384 42.9342 46.7394 42.9342C48.5403 42.9342 50.0002 41.4744 50.0002 39.6734V3.80391C50.0002 2.00293 48.5403 0.542969 46.7394 0.542969Z" fill="black"/>
<path d="M22.8262 9.70498V33.7721C30.588 34.7816 34.533 36.3264 40.2175 38.2759V5.20117C34.5745 7.13623 30.6202 8.69131 22.8262 9.70498Z" fill="black"/>
</g>
<defs>
<clipPath id="clip0">
<rect width="50" height="50" fill="white"/>
</clipPath>
</defs>
</svg>
