<svg width="323" height="91" viewBox="0 0 323 91" fill="none" xmlns="http://www.w3.org/2000/svg">
<circle cx="268.205" cy="16.8635" r="16.8635" fill="#BDC3CB"/>
<path d="M266.933 15.8776H267.962C268.451 15.8776 268.814 15.7552 269.05 15.5103C269.286 15.2655 269.404 14.9405 269.404 14.5353C269.404 14.1436 269.286 13.8386 269.05 13.6205C268.819 13.4023 268.498 13.2933 268.089 13.2933C267.719 13.2933 267.41 13.3957 267.16 13.6004C266.911 13.8008 266.786 14.0634 266.786 14.3884H264.857C264.857 13.8809 264.992 13.4268 265.264 13.0261C265.54 12.621 265.923 12.3049 266.412 12.0779C266.907 11.8508 267.45 11.7373 268.042 11.7373C269.07 11.7373 269.876 11.9844 270.459 12.4786C271.042 12.9683 271.334 13.645 271.334 14.5086C271.334 14.9538 271.198 15.3634 270.927 15.7374C270.655 16.1113 270.299 16.3985 269.858 16.5988C270.406 16.7947 270.813 17.0885 271.08 17.4803C271.352 17.8721 271.488 18.3351 271.488 18.8693C271.488 19.733 271.172 20.4253 270.539 20.9461C269.912 21.467 269.079 21.7275 268.042 21.7275C267.071 21.7275 266.277 21.4715 265.658 20.9595C265.044 20.4475 264.736 19.7708 264.736 18.9294H266.666C266.666 19.2945 266.802 19.5928 267.074 19.8243C267.35 20.0558 267.688 20.1715 268.089 20.1715C268.547 20.1715 268.906 20.0513 269.164 19.8109C269.426 19.566 269.558 19.2433 269.558 18.8426C269.558 17.8721 269.024 17.3868 267.955 17.3868H266.933V15.8776Z" fill="white"/>
<path d="M253.398 0.822266C239.003 18.5084 253.398 32.9041 253.398 32.9041" stroke="#D5D9DE"/>
<path d="M283.424 32.9043C297.82 15.2182 283.424 0.822478 283.424 0.822478" stroke="#D5D9DE"/>
<path d="M214.899 48.4312V59H216.218V55.228H218.876C220.861 55.228 222.275 53.8291 222.275 51.8516C222.275 49.8374 220.891 48.4312 218.891 48.4312H214.899ZM216.218 49.603H218.547C220.078 49.603 220.92 50.4014 220.92 51.8516C220.92 53.2505 220.048 54.0562 218.547 54.0562H216.218V49.603ZM227.424 52.0786C228.676 52.0786 229.511 53.0015 229.541 54.4004H225.19C225.285 53.0015 226.164 52.0786 227.424 52.0786ZM229.504 56.9565C229.174 57.6523 228.486 58.0259 227.468 58.0259C226.127 58.0259 225.256 57.0371 225.19 55.4771V55.4185H230.866V54.9351C230.866 52.4814 229.57 50.9653 227.438 50.9653C225.271 50.9653 223.879 52.5767 223.879 55.0596C223.879 57.5571 225.249 59.1392 227.438 59.1392C229.167 59.1392 230.397 58.3042 230.764 56.9565H229.504ZM234.66 55.4038L237.751 59H239.384L235.7 54.8252L239.245 51.1045H237.714L234.66 54.4077H234.243V51.1045H232.983V59H234.243V55.4038H234.66ZM244.028 59.1392C246.276 59.1392 247.668 57.5864 247.668 55.0522C247.668 52.5107 246.276 50.9653 244.028 50.9653C241.779 50.9653 240.388 52.5107 240.388 55.0522C240.388 57.5864 241.779 59.1392 244.028 59.1392ZM244.028 58.0039C242.534 58.0039 241.691 56.9199 241.691 55.0522C241.691 53.1772 242.534 52.1006 244.028 52.1006C245.522 52.1006 246.364 53.1772 246.364 55.0522C246.364 56.9199 245.522 58.0039 244.028 58.0039ZM251.044 59V53.3823H251.184L253.681 58.7803H254.663L257.16 53.3823H257.299V59H258.566V51.1045H257.094L254.26 57.2275H254.143L251.315 51.1045H249.785V59H251.044ZM264.235 52.0786C265.488 52.0786 266.323 53.0015 266.352 54.4004H262.001C262.097 53.0015 262.976 52.0786 264.235 52.0786ZM266.315 56.9565C265.986 57.6523 265.297 58.0259 264.279 58.0259C262.939 58.0259 262.067 57.0371 262.001 55.4771V55.4185H267.678V54.9351C267.678 52.4814 266.381 50.9653 264.25 50.9653C262.082 50.9653 260.69 52.5767 260.69 55.0596C260.69 57.5571 262.06 59.1392 264.25 59.1392C265.979 59.1392 267.209 58.3042 267.575 56.9565H266.315ZM274.995 59H276.254V51.1045H274.995V54.3711H271.054V51.1045H269.794V59H271.054V55.4258H274.995V59ZM283.784 57.9453H279.887V57.8281C280.261 57.3374 280.466 56.4951 280.539 55.5356L280.788 52.1592H283.784V57.9453ZM278.942 61.0874V59H285.117V61.0874H286.303V57.9453H285.043V51.1045H279.66L279.353 55.5063C279.279 56.5684 278.994 57.5645 278.415 57.9453H277.756V61.0874H278.942ZM290.397 58.0332C289.482 58.0332 288.801 57.5645 288.801 56.7588C288.801 55.9678 289.328 55.5503 290.529 55.4697L292.653 55.3306V56.0557C292.653 57.1836 291.694 58.0332 290.397 58.0332ZM290.163 59.1392C291.218 59.1392 292.082 58.6777 292.595 57.8354H292.712V59H293.913V53.5947C293.913 51.9541 292.836 50.9653 290.91 50.9653C289.226 50.9653 287.98 51.8003 287.812 53.0674H289.086C289.262 52.4448 289.921 52.0859 290.866 52.0859C292.045 52.0859 292.653 52.6206 292.653 53.5947V54.3125L290.375 54.4517C288.537 54.5615 287.497 55.3745 287.497 56.7881C287.497 58.231 288.632 59.1392 290.163 59.1392ZM303.955 61.0874V57.9453H302.695V51.1045H301.435V57.9453H297.641V51.1045H296.381V59H302.768V61.0874H303.955ZM306.87 59L310.803 53.1113H310.92V59H312.18V51.1045H310.92L306.987 56.9932H306.87V51.1045H305.61V59H306.87ZM315.952 59L319.885 53.1113H320.002V59H321.262V51.1045H320.002L316.069 56.9932H315.952V51.1045H314.692V59H315.952Z" fill="#2D4059"/>
<circle cx="155.204" cy="16.8635" r="16.8635" fill="#BDC3CB"/>
<path d="M158.71 21.5944H152.045V20.2722L155.191 16.9198C155.622 16.4479 155.941 16.0361 156.145 15.6844C156.355 15.3327 156.459 14.9988 156.459 14.6828C156.459 14.2509 156.35 13.9126 156.132 13.6677C155.914 13.4184 155.602 13.2937 155.197 13.2937C154.761 13.2937 154.416 13.4451 154.162 13.7478C153.913 14.0461 153.788 14.4401 153.788 14.9298H151.852C151.852 14.3377 151.992 13.7968 152.272 13.3071C152.557 12.8174 152.958 12.4345 153.474 12.1585C153.991 11.878 154.576 11.7378 155.231 11.7378C156.232 11.7378 157.009 11.9782 157.561 12.459C158.118 12.9398 158.396 13.6187 158.396 14.4958C158.396 14.9766 158.271 15.4663 158.022 15.9649C157.773 16.4635 157.345 17.0445 156.74 17.7078L154.529 20.0384H158.71V21.5944Z" fill="white"/>
<path d="M140.398 0.822266C126.003 18.5084 140.398 32.9041 140.398 32.9041" stroke="#D5D9DE"/>
<path d="M170.423 32.9043C184.819 15.2182 170.423 0.822478 170.423 0.822478" stroke="#D5D9DE"/>
<path d="M125.762 59V48.4312H124.443V53.0015H118.643V48.4312H117.324V59H118.643V54.188H124.443V59H125.762ZM130.874 58.0332C129.958 58.0332 129.277 57.5645 129.277 56.7588C129.277 55.9678 129.805 55.5503 131.006 55.4697L133.13 55.3306V56.0557C133.13 57.1836 132.17 58.0332 130.874 58.0332ZM130.64 59.1392C131.694 59.1392 132.559 58.6777 133.071 57.8354H133.188V59H134.39V53.5947C134.39 51.9541 133.313 50.9653 131.387 50.9653C129.702 50.9653 128.457 51.8003 128.289 53.0674H129.563C129.739 52.4448 130.398 52.0859 131.343 52.0859C132.522 52.0859 133.13 52.6206 133.13 53.5947V54.3125L130.852 54.4517C129.014 54.5615 127.974 55.3745 127.974 56.7881C127.974 58.231 129.109 59.1392 130.64 59.1392ZM143.398 53.5215C143.179 52.1152 142.007 50.9653 140.088 50.9653C137.876 50.9653 136.47 52.562 136.47 55.0229C136.47 57.5352 137.883 59.1392 140.095 59.1392C141.992 59.1392 143.171 58.0698 143.398 56.6196H142.124C141.89 57.5132 141.15 58.0039 140.088 58.0039C138.682 58.0039 137.773 56.8467 137.773 55.0229C137.773 53.2358 138.667 52.1006 140.088 52.1006C141.223 52.1006 141.919 52.7378 142.124 53.5215H143.398ZM147.075 55.4038L150.166 59H151.799L148.115 54.8252L151.66 51.1045H150.129L147.075 54.4077H146.658V51.1045H145.398V59H146.658V55.4038H147.075ZM156.443 59.1392C158.691 59.1392 160.083 57.5864 160.083 55.0522C160.083 52.5107 158.691 50.9653 156.443 50.9653C154.194 50.9653 152.803 52.5107 152.803 55.0522C152.803 57.5864 154.194 59.1392 156.443 59.1392ZM156.443 58.0039C154.949 58.0039 154.106 56.9199 154.106 55.0522C154.106 53.1772 154.949 52.1006 156.443 52.1006C157.937 52.1006 158.779 53.1772 158.779 55.0522C158.779 56.9199 157.937 58.0039 156.443 58.0039ZM164.023 55.5356L164.272 52.1592H167.034V59H168.293V51.1045H163.13L162.822 55.5063C162.72 56.9712 162.419 57.8867 161.636 57.8867C161.453 57.8867 161.306 57.8501 161.24 57.8281V58.9854C161.328 59.022 161.475 59.0659 161.702 59.0659C163.342 59.0659 163.862 57.7036 164.023 55.5356ZM173.618 54.6934C174.651 54.6934 175.325 55.3306 175.325 56.3193C175.325 57.3008 174.658 57.9453 173.618 57.9453H172.058V54.6934H173.618ZM170.798 59H173.618C175.427 59 176.584 57.96 176.584 56.3193C176.584 54.6787 175.427 53.6387 173.618 53.6387H172.058V51.1045H170.798V59ZM180.225 55.4038L183.315 59H184.949L181.265 54.8252L184.81 51.1045H183.279L180.225 54.4077H179.807V51.1045H178.547V59H179.807V55.4038H180.225ZM189.592 59.1392C191.841 59.1392 193.232 57.5864 193.232 55.0522C193.232 52.5107 191.841 50.9653 189.592 50.9653C187.344 50.9653 185.952 52.5107 185.952 55.0522C185.952 57.5864 187.344 59.1392 189.592 59.1392ZM189.592 58.0039C188.098 58.0039 187.256 56.9199 187.256 55.0522C187.256 53.1772 188.098 52.1006 189.592 52.1006C191.086 52.1006 191.929 53.1772 191.929 55.0522C191.929 56.9199 191.086 58.0039 189.592 58.0039ZM138.279 77H139.539V69.1045H138.279V72.3711H134.338V69.1045H133.079V77H134.338V73.4258H138.279V77ZM142.725 79.8564C144.124 79.8564 144.753 79.3145 145.427 77.4834L148.511 69.1045H147.17L145.01 75.6011H144.893L142.725 69.1045H141.362L144.285 77.0073L144.138 77.4761C143.809 78.4282 143.413 78.7725 142.688 78.7725C142.512 78.7725 142.314 78.7651 142.161 78.7358V79.8125C142.336 79.8418 142.556 79.8564 142.725 79.8564ZM150.891 77L153.726 73.3818H154.194V77H155.425V73.3818H155.894L158.728 77H160.325L156.897 72.8105L160.164 69.1045H158.655L155.894 72.4297H155.425V69.1045H154.194V72.4297H153.726L150.964 69.1045H149.434L152.722 72.8398L149.316 77H150.891ZM164.902 70.0786C166.155 70.0786 166.99 71.0015 167.019 72.4004H162.668C162.764 71.0015 163.643 70.0786 164.902 70.0786ZM166.982 74.9565C166.653 75.6523 165.964 76.0259 164.946 76.0259C163.606 76.0259 162.734 75.0371 162.668 73.4771V73.4185H168.345V72.9351C168.345 70.4814 167.048 68.9653 164.917 68.9653C162.749 68.9653 161.357 70.5767 161.357 73.0596C161.357 75.5571 162.727 77.1392 164.917 77.1392C166.646 77.1392 167.876 76.3042 168.242 74.9565H166.982ZM175.662 77H176.921V69.1045H175.662V72.3711H171.721V69.1045H170.461V77H171.721V73.4258H175.662V77Z" fill="#2D4059"/>
<circle cx="42.2043" cy="16.8635" r="16.8635" fill="#2AB6DC"/>
<path d="M44.6508 21.5938H42.7209V14.1546L40.417 14.8692V13.2999L44.4438 11.8574H44.6508V21.5938Z" fill="white"/>
<path opacity="0.3" d="M27.3984 0.822266C13.0027 18.5084 27.3984 32.9041 27.3984 32.9041" stroke="#2AB6DC"/>
<path opacity="0.3" d="M57.4233 32.9043C71.819 15.2182 57.4233 0.822478 57.4233 0.822478" stroke="#2AB6DC"/>
<path d="M12.7617 59V48.4312H11.4434V53.0015H5.64258V48.4312H4.32422V59H5.64258V54.188H11.4434V59H12.7617ZM17.874 58.0332C16.9585 58.0332 16.2773 57.5645 16.2773 56.7588C16.2773 55.9678 16.8047 55.5503 18.0059 55.4697L20.1299 55.3306V56.0557C20.1299 57.1836 19.1704 58.0332 17.874 58.0332ZM17.6396 59.1392C18.6943 59.1392 19.5586 58.6777 20.0713 57.8354H20.1885V59H21.3896V53.5947C21.3896 51.9541 20.313 50.9653 18.3867 50.9653C16.7021 50.9653 15.457 51.8003 15.2886 53.0674H16.563C16.7388 52.4448 17.3979 52.0859 18.3428 52.0859C19.522 52.0859 20.1299 52.6206 20.1299 53.5947V54.3125L17.8521 54.4517C16.0137 54.5615 14.9736 55.3745 14.9736 56.7881C14.9736 58.231 16.1089 59.1392 17.6396 59.1392ZM30.3984 53.5215C30.1787 52.1152 29.0068 50.9653 27.0879 50.9653C24.876 50.9653 23.4697 52.562 23.4697 55.0229C23.4697 57.5352 24.8833 59.1392 27.0952 59.1392C28.9922 59.1392 30.1714 58.0698 30.3984 56.6196H29.124C28.8896 57.5132 28.1499 58.0039 27.0879 58.0039C25.6816 58.0039 24.7734 56.8467 24.7734 55.0229C24.7734 53.2358 25.667 52.1006 27.0879 52.1006C28.2231 52.1006 28.9189 52.7378 29.124 53.5215H30.3984ZM34.0752 55.4038L37.166 59H38.7993L35.1152 54.8252L38.6602 51.1045H37.1294L34.0752 54.4077H33.6577V51.1045H32.3979V59H33.6577V55.4038H34.0752ZM43.4429 59.1392C45.6914 59.1392 47.083 57.5864 47.083 55.0522C47.083 52.5107 45.6914 50.9653 43.4429 50.9653C41.1943 50.9653 39.8027 52.5107 39.8027 55.0522C39.8027 57.5864 41.1943 59.1392 43.4429 59.1392ZM43.4429 58.0039C41.9487 58.0039 41.1064 56.9199 41.1064 55.0522C41.1064 53.1772 41.9487 52.1006 43.4429 52.1006C44.937 52.1006 45.7793 53.1772 45.7793 55.0522C45.7793 56.9199 44.937 58.0039 43.4429 58.0039ZM51.0234 55.5356L51.2725 52.1592H54.0337V59H55.2935V51.1045H50.1299L49.8223 55.5063C49.7197 56.9712 49.4194 57.8867 48.6357 57.8867C48.4526 57.8867 48.3062 57.8501 48.2402 57.8281V58.9854C48.3281 59.022 48.4746 59.0659 48.7017 59.0659C50.3423 59.0659 50.8623 57.7036 51.0234 55.5356ZM60.6182 54.6934C61.6509 54.6934 62.3247 55.3306 62.3247 56.3193C62.3247 57.3008 61.6582 57.9453 60.6182 57.9453H59.0581V54.6934H60.6182ZM57.7983 59H60.6182C62.4272 59 63.5845 57.96 63.5845 56.3193C63.5845 54.6787 62.4272 53.6387 60.6182 53.6387H59.0581V51.1045H57.7983V59ZM67.2246 55.4038L70.3154 59H71.9487L68.2646 54.8252L71.8096 51.1045H70.2788L67.2246 54.4077H66.8071V51.1045H65.5474V59H66.8071V55.4038H67.2246ZM76.5923 59.1392C78.8408 59.1392 80.2324 57.5864 80.2324 55.0522C80.2324 52.5107 78.8408 50.9653 76.5923 50.9653C74.3438 50.9653 72.9521 52.5107 72.9521 55.0522C72.9521 57.5864 74.3438 59.1392 76.5923 59.1392ZM76.5923 58.0039C75.0981 58.0039 74.2559 56.9199 74.2559 55.0522C74.2559 53.1772 75.0981 52.1006 76.5923 52.1006C78.0864 52.1006 78.9287 53.1772 78.9287 55.0522C78.9287 56.9199 78.0864 58.0039 76.5923 58.0039ZM17.603 75.9453H13.7065V75.8281C14.0801 75.3374 14.2852 74.4951 14.3584 73.5356L14.6074 70.1592H17.603V75.9453ZM12.7617 79.0874V77H18.936V79.0874H20.1226V75.9453H18.8628V69.1045H13.4795L13.1719 73.5063C13.0986 74.5684 12.813 75.5645 12.2344 75.9453H11.5752V79.0874H12.7617ZM25.0298 77.1392C27.2783 77.1392 28.6699 75.5864 28.6699 73.0522C28.6699 70.5107 27.2783 68.9653 25.0298 68.9653C22.7812 68.9653 21.3896 70.5107 21.3896 73.0522C21.3896 75.5864 22.7812 77.1392 25.0298 77.1392ZM25.0298 76.0039C23.5356 76.0039 22.6934 74.9199 22.6934 73.0522C22.6934 71.1772 23.5356 70.1006 25.0298 70.1006C26.5239 70.1006 27.3662 71.1772 27.3662 73.0522C27.3662 74.9199 26.5239 76.0039 25.0298 76.0039ZM34.6392 68.9653C33.5625 68.9653 32.6177 69.5146 32.1123 70.4229H31.9951V69.1045H30.7939V79.6367H32.0537V75.8135H32.1709C32.603 76.6484 33.5112 77.1392 34.6392 77.1392C36.646 77.1392 37.957 75.5205 37.957 73.0522C37.957 70.5693 36.6533 68.9653 34.6392 68.9653ZM34.3389 76.0039C32.918 76.0039 32.0171 74.8613 32.0171 73.0522C32.0171 71.2358 32.918 70.1006 34.3462 70.1006C35.7891 70.1006 36.6533 71.2065 36.6533 73.0522C36.6533 74.8979 35.7891 76.0039 34.3389 76.0039ZM43.3257 77.1392C45.5742 77.1392 46.9658 75.5864 46.9658 73.0522C46.9658 70.5107 45.5742 68.9653 43.3257 68.9653C41.0771 68.9653 39.6855 70.5107 39.6855 73.0522C39.6855 75.5864 41.0771 77.1392 43.3257 77.1392ZM43.3257 76.0039C41.8315 76.0039 40.9893 74.9199 40.9893 73.0522C40.9893 71.1772 41.8315 70.1006 43.3257 70.1006C44.8198 70.1006 45.6621 71.1772 45.6621 73.0522C45.6621 74.9199 44.8198 76.0039 43.3257 76.0039ZM54.1362 70.1592V69.1045H49.0825V77H50.3423V70.1592H54.1362ZM59.0874 77.1392C61.3359 77.1392 62.7275 75.5864 62.7275 73.0522C62.7275 70.5107 61.3359 68.9653 59.0874 68.9653C56.8389 68.9653 55.4473 70.5107 55.4473 73.0522C55.4473 75.5864 56.8389 77.1392 59.0874 77.1392ZM59.0874 76.0039C57.5933 76.0039 56.751 74.9199 56.751 73.0522C56.751 71.1772 57.5933 70.1006 59.0874 70.1006C60.5815 70.1006 61.4238 71.1772 61.4238 73.0522C61.4238 74.9199 60.5815 76.0039 59.0874 76.0039ZM66.104 77L70.0371 71.1113H70.1543V77H71.4141V69.1045H70.1543L66.2212 74.9932H66.104V69.1045H64.8442V77H66.104ZM65.6206 65.6035C65.6206 66.9658 66.624 68.0059 68.1328 68.0059C69.6416 68.0059 70.645 66.9658 70.645 65.6035H69.5024C69.5024 66.4019 68.9971 67.1416 68.1328 67.1416C67.2832 67.1416 66.7632 66.4019 66.7632 65.6035H65.6206Z" fill="#2D4059"/>
<rect x="69.25" y="18.25" width="59.5" height="0.5" stroke="#D5D9DE" stroke-width="0.5" stroke-dasharray="1 1"/>
<rect x="182.25" y="18.25" width="59.5" height="0.5" stroke="#D5D9DE" stroke-width="0.5" stroke-dasharray="1 1"/>
</svg>
