<svg width="352" height="91" viewBox="0 0 352 91" fill="none" xmlns="http://www.w3.org/2000/svg">
<circle cx="52.2043" cy="16.8635" r="16.8635" fill="#2ADCB1"/>
<path d="M57.8744 11L49.4474 19.6794L46.1275 16.2601L45.001 17.4204L49.4474 22L59.001 12.1603L57.8744 11Z" fill="white"/>
<path opacity="0.3" d="M37.3984 0.822266C23.0027 18.5084 37.3984 32.9041 37.3984 32.9041" stroke="#2AB6DC"/>
<path opacity="0.3" d="M67.4238 32.9043C81.8195 15.2182 67.4238 0.822478 67.4238 0.822478" stroke="#2AB6DC"/>
<path d="M28.5728 57H27.3477V52.728H22.6885V57H21.4697V47.7578H22.6885V51.7314H27.3477V47.7578H28.5728V57ZM34.7935 57C34.7257 56.8646 34.6707 56.6234 34.6284 56.2764C34.0825 56.8434 33.4308 57.127 32.6733 57.127C31.9963 57.127 31.4398 56.9365 31.0039 56.5557C30.5723 56.1706 30.3564 55.6839 30.3564 55.0957C30.3564 54.3805 30.6273 53.8262 31.1689 53.4326C31.7148 53.0348 32.4808 52.8359 33.4668 52.8359H34.6094V52.2964C34.6094 51.8859 34.4867 51.5601 34.2412 51.3188C33.9958 51.0734 33.634 50.9507 33.1558 50.9507C32.7368 50.9507 32.3856 51.0565 32.1021 51.2681C31.8185 51.4797 31.6768 51.7357 31.6768 52.0361H30.4961C30.4961 51.6934 30.6167 51.3633 30.8579 51.0459C31.1034 50.7243 31.4334 50.4704 31.8481 50.2842C32.2671 50.098 32.7262 50.0049 33.2256 50.0049C34.0169 50.0049 34.6369 50.2038 35.0854 50.6016C35.534 50.9951 35.7668 51.5389 35.7837 52.2329V55.394C35.7837 56.0246 35.8641 56.526 36.0249 56.8984V57H34.7935ZM32.8447 56.105C33.2129 56.105 33.562 56.0098 33.8921 55.8193C34.2222 55.6289 34.4613 55.3813 34.6094 55.0767V53.6675H33.689C32.2502 53.6675 31.5308 54.0885 31.5308 54.9307C31.5308 55.2988 31.6535 55.5866 31.8989 55.7939C32.1444 56.0013 32.4596 56.105 32.8447 56.105ZM40.3794 56.1685C40.7983 56.1685 41.1644 56.0415 41.4775 55.7876C41.7907 55.5337 41.9642 55.2163 41.998 54.8354H43.1089C43.0877 55.229 42.9523 55.6035 42.7026 55.959C42.453 56.3145 42.1187 56.598 41.6997 56.8096C41.285 57.0212 40.8449 57.127 40.3794 57.127C39.4442 57.127 38.6994 56.8159 38.145 56.1938C37.5949 55.5675 37.3198 54.7127 37.3198 53.6294V53.4326C37.3198 52.764 37.4425 52.1694 37.688 51.6489C37.9334 51.1284 38.2847 50.7243 38.7417 50.4365C39.203 50.1488 39.7467 50.0049 40.373 50.0049C41.1432 50.0049 41.7822 50.2355 42.29 50.6968C42.8021 51.158 43.075 51.7568 43.1089 52.4932H41.998C41.9642 52.0488 41.7949 51.6849 41.4902 51.4014C41.1898 51.1136 40.8174 50.9697 40.373 50.9697C39.7764 50.9697 39.313 51.1855 38.9829 51.6172C38.6571 52.0446 38.4941 52.6646 38.4941 53.4771V53.6992C38.4941 54.4906 38.6571 55.0999 38.9829 55.5273C39.3088 55.9548 39.7743 56.1685 40.3794 56.1685ZM46.5684 54.0737H45.7114V57H44.5308V50.1318H45.7114V53.0391H46.4795L48.79 50.1318H50.2119L47.4951 53.4326L50.4404 57H48.9487L46.5684 54.0737ZM50.999 53.5024C50.999 52.8296 51.1302 52.2244 51.3926 51.687C51.6592 51.1496 52.0273 50.7349 52.4971 50.4429C52.971 50.1509 53.5106 50.0049 54.1157 50.0049C55.0509 50.0049 55.8063 50.3286 56.3818 50.9761C56.9616 51.6235 57.2515 52.4847 57.2515 53.5596V53.6421C57.2515 54.3107 57.1224 54.9116 56.8643 55.4448C56.6104 55.9738 56.2443 56.3864 55.7661 56.6826C55.2922 56.9788 54.7463 57.127 54.1284 57.127C53.1974 57.127 52.4421 56.8032 51.8623 56.1558C51.2868 55.5083 50.999 54.6514 50.999 53.585V53.5024ZM52.1797 53.6421C52.1797 54.4038 52.3553 55.0153 52.7065 55.4766C53.062 55.9378 53.536 56.1685 54.1284 56.1685C54.7251 56.1685 55.1991 55.9357 55.5503 55.4702C55.9015 55.0005 56.0771 54.3446 56.0771 53.5024C56.0771 52.7492 55.8973 52.1398 55.5376 51.6743C55.1821 51.2046 54.7082 50.9697 54.1157 50.9697C53.536 50.9697 53.0684 51.2004 52.7129 51.6616C52.3574 52.1229 52.1797 52.783 52.1797 53.6421ZM64.2529 50.1318V57H63.0723V51.103H60.7363L60.5967 53.6738C60.5205 54.8545 60.3216 55.6987 60 56.2065C59.6826 56.7144 59.1769 56.9788 58.4829 57H58.0132V55.9653L58.3496 55.9399C58.7305 55.8976 59.0034 55.6776 59.1685 55.2798C59.3335 54.882 59.4393 54.1457 59.4858 53.0708L59.6128 50.1318H64.2529ZM67.4204 52.4995H69.2041C69.9827 52.508 70.5985 52.7111 71.0513 53.1089C71.5041 53.5067 71.7305 54.0462 71.7305 54.7275C71.7305 55.4131 71.4977 55.9632 71.0322 56.3779C70.5667 56.7926 69.9404 57 69.1533 57H66.2461V50.1318H67.4204V52.4995ZM67.4204 53.458V56.0415H69.166C69.6061 56.0415 69.9468 55.9294 70.188 55.7051C70.4292 55.4766 70.5498 55.1655 70.5498 54.772C70.5498 54.3911 70.4313 54.0801 70.1943 53.8389C69.9616 53.5934 69.6336 53.4665 69.2104 53.458H67.4204ZM75.3359 54.0737H74.479V57H73.2983V50.1318H74.479V53.0391H75.2471L77.5576 50.1318H78.9795L76.2627 53.4326L79.208 57H77.7163L75.3359 54.0737ZM79.7666 53.5024C79.7666 52.8296 79.8978 52.2244 80.1602 51.687C80.4268 51.1496 80.7949 50.7349 81.2646 50.4429C81.7386 50.1509 82.2782 50.0049 82.8833 50.0049C83.8185 50.0049 84.5739 50.3286 85.1494 50.9761C85.7292 51.6235 86.019 52.4847 86.019 53.5596V53.6421C86.019 54.3107 85.89 54.9116 85.6318 55.4448C85.3779 55.9738 85.0119 56.3864 84.5337 56.6826C84.0597 56.9788 83.5138 57.127 82.896 57.127C81.965 57.127 81.2096 56.8032 80.6299 56.1558C80.0544 55.5083 79.7666 54.6514 79.7666 53.585V53.5024ZM80.9473 53.6421C80.9473 54.4038 81.1229 55.0153 81.4741 55.4766C81.8296 55.9378 82.3035 56.1685 82.896 56.1685C83.4927 56.1685 83.9666 55.9357 84.3179 55.4702C84.6691 55.0005 84.8447 54.3446 84.8447 53.5024C84.8447 52.7492 84.6649 52.1398 84.3052 51.6743C83.9497 51.2046 83.4757 50.9697 82.8833 50.9697C82.3035 50.9697 81.8359 51.2004 81.4805 51.6616C81.125 52.1229 80.9473 52.783 80.9473 53.6421ZM29.2202 71.0415L29.6265 70.54C30.0835 69.9476 30.3438 69.0589 30.4072 67.874L30.5151 65.1318H34.9395V71.0415H35.8218V74.0186H34.6475V72H29.855V74.0186H28.6807L28.687 71.0415H29.2202ZM30.6104 71.0415H33.7651V66.2173H31.6514L31.5815 67.855C31.5096 69.2218 31.1859 70.284 30.6104 71.0415ZM36.812 68.5024C36.812 67.8296 36.9432 67.2244 37.2056 66.687C37.4722 66.1496 37.8403 65.7349 38.3101 65.4429C38.784 65.1509 39.3236 65.0049 39.9287 65.0049C40.8639 65.0049 41.6193 65.3286 42.1948 65.9761C42.7746 66.6235 43.0645 67.4847 43.0645 68.5596V68.6421C43.0645 69.3107 42.9354 69.9116 42.6772 70.4448C42.4233 70.9738 42.0573 71.3864 41.5791 71.6826C41.1051 71.9788 40.5592 72.127 39.9414 72.127C39.0104 72.127 38.255 71.8032 37.6753 71.1558C37.0998 70.5083 36.812 69.6514 36.812 68.585V68.5024ZM37.9927 68.6421C37.9927 69.4038 38.1683 70.0153 38.5195 70.4766C38.875 70.9378 39.349 71.1685 39.9414 71.1685C40.5381 71.1685 41.012 70.9357 41.3633 70.4702C41.7145 70.0005 41.8901 69.3446 41.8901 68.5024C41.8901 67.7492 41.7103 67.1398 41.3506 66.6743C40.9951 66.2046 40.5212 65.9697 39.9287 65.9697C39.349 65.9697 38.8813 66.2004 38.5259 66.6616C38.1704 67.1229 37.9927 67.783 37.9927 68.6421ZM50.3389 68.6421C50.3389 69.6873 50.0998 70.5295 49.6216 71.1685C49.1434 71.8075 48.4959 72.127 47.6792 72.127C46.8455 72.127 46.1896 71.8625 45.7114 71.3335V74.6406H44.5371V65.1318H45.6099L45.667 65.8936C46.1452 65.3011 46.8096 65.0049 47.6602 65.0049C48.4854 65.0049 49.137 65.3159 49.6152 65.938C50.0977 66.5601 50.3389 67.4255 50.3389 68.5342V68.6421ZM49.1646 68.5088C49.1646 67.7344 48.9995 67.1229 48.6694 66.6743C48.3394 66.2257 47.8866 66.0015 47.311 66.0015C46.6001 66.0015 46.0669 66.3167 45.7114 66.9473V70.229C46.0627 70.8553 46.6001 71.1685 47.3237 71.1685C47.8866 71.1685 48.333 70.9463 48.6631 70.502C48.9974 70.0534 49.1646 69.389 49.1646 68.5088ZM51.5259 68.5024C51.5259 67.8296 51.6571 67.2244 51.9194 66.687C52.186 66.1496 52.5542 65.7349 53.0239 65.4429C53.4979 65.1509 54.0374 65.0049 54.6426 65.0049C55.5778 65.0049 56.3332 65.3286 56.9087 65.9761C57.4884 66.6235 57.7783 67.4847 57.7783 68.5596V68.6421C57.7783 69.3107 57.6493 69.9116 57.3911 70.4448C57.1372 70.9738 56.7712 71.3864 56.293 71.6826C55.819 71.9788 55.2731 72.127 54.6553 72.127C53.7243 72.127 52.9689 71.8032 52.3892 71.1558C51.8136 70.5083 51.5259 69.6514 51.5259 68.585V68.5024ZM52.7065 68.6421C52.7065 69.4038 52.8822 70.0153 53.2334 70.4766C53.5889 70.9378 54.0628 71.1685 54.6553 71.1685C55.252 71.1685 55.7259 70.9357 56.0771 70.4702C56.4284 70.0005 56.604 69.3446 56.604 68.5024C56.604 67.7492 56.4242 67.1398 56.0645 66.6743C55.709 66.2046 55.235 65.9697 54.6426 65.9697C54.0628 65.9697 53.5952 66.2004 53.2397 66.6616C52.8843 67.1229 52.7065 67.783 52.7065 68.6421ZM63.688 66.103H60.5205V72H59.3398V65.1318H63.688V66.103ZM64.272 68.5024C64.272 67.8296 64.4032 67.2244 64.6655 66.687C64.9321 66.1496 65.3003 65.7349 65.77 65.4429C66.244 65.1509 66.7835 65.0049 67.3887 65.0049C68.3239 65.0049 69.0793 65.3286 69.6548 65.9761C70.2345 66.6235 70.5244 67.4847 70.5244 68.5596V68.6421C70.5244 69.3107 70.3953 69.9116 70.1372 70.4448C69.8833 70.9738 69.5173 71.3864 69.0391 71.6826C68.5651 71.9788 68.0192 72.127 67.4014 72.127C66.4704 72.127 65.715 71.8032 65.1353 71.1558C64.5597 70.5083 64.272 69.6514 64.272 68.585V68.5024ZM65.4526 68.6421C65.4526 69.4038 65.6283 70.0153 65.9795 70.4766C66.335 70.9378 66.8089 71.1685 67.4014 71.1685C67.998 71.1685 68.472 70.9357 68.8232 70.4702C69.1745 70.0005 69.3501 69.3446 69.3501 68.5024C69.3501 67.7492 69.1702 67.1398 68.8105 66.6743C68.4551 66.2046 67.9811 65.9697 67.3887 65.9697C66.8089 65.9697 66.3413 66.2004 65.9858 66.6616C65.6304 67.1229 65.4526 67.783 65.4526 68.6421ZM76.4404 65.1318H77.6147V72H76.4404V66.9917L73.2729 72H72.0986V65.1318H73.2729V70.1465L76.4404 65.1318ZM76.7578 62.6309C76.7578 63.1429 76.5822 63.5555 76.231 63.8687C75.884 64.1776 75.4269 64.332 74.8599 64.332C74.2928 64.332 73.8337 64.1755 73.4824 63.8623C73.1312 63.5492 72.9556 63.1387 72.9556 62.6309H73.9141C73.9141 62.9271 73.9945 63.1598 74.1553 63.3291C74.3161 63.4941 74.5509 63.5767 74.8599 63.5767C75.1561 63.5767 75.3867 63.4941 75.5518 63.3291C75.721 63.1641 75.8057 62.9313 75.8057 62.6309H76.7578Z" fill="#2D4059"/>
<circle cx="173.335" cy="16.8635" r="16.8635" fill="#2ADCB1"/>
<path d="M178.872 11L170.445 19.6794L167.126 16.2601L165.999 17.4204L170.445 22L179.999 12.1603L178.872 11Z" fill="white"/>
<path d="M158.53 0.822754C144.135 18.5089 158.53 32.9046 158.53 32.9046" stroke="#D5D9DE"/>
<path d="M188.555 32.9048C202.95 15.2187 188.555 0.822966 188.555 0.822966" stroke="#D5D9DE"/>
<path d="M148.072 57H146.847V52.728H142.188V57H140.969V47.7578H142.188V51.7314H146.847V47.7578H148.072V57ZM154.292 57C154.225 56.8646 154.17 56.6234 154.127 56.2764C153.582 56.8434 152.93 57.127 152.172 57.127C151.495 57.127 150.939 56.9365 150.503 56.5557C150.071 56.1706 149.855 55.6839 149.855 55.0957C149.855 54.3805 150.126 53.8262 150.668 53.4326C151.214 53.0348 151.98 52.8359 152.966 52.8359H154.108V52.2964C154.108 51.8859 153.986 51.5601 153.74 51.3188C153.495 51.0734 153.133 50.9507 152.655 50.9507C152.236 50.9507 151.885 51.0565 151.601 51.2681C151.318 51.4797 151.176 51.7357 151.176 52.0361H149.995C149.995 51.6934 150.116 51.3633 150.357 51.0459C150.602 50.7243 150.932 50.4704 151.347 50.2842C151.766 50.098 152.225 50.0049 152.725 50.0049C153.516 50.0049 154.136 50.2038 154.584 50.6016C155.033 50.9951 155.266 51.5389 155.283 52.2329V55.394C155.283 56.0246 155.363 56.526 155.524 56.8984V57H154.292ZM152.344 56.105C152.712 56.105 153.061 56.0098 153.391 55.8193C153.721 55.6289 153.96 55.3813 154.108 55.0767V53.6675H153.188C151.749 53.6675 151.03 54.0885 151.03 54.9307C151.03 55.2988 151.153 55.5866 151.398 55.7939C151.643 56.0013 151.959 56.105 152.344 56.105ZM159.878 56.1685C160.297 56.1685 160.663 56.0415 160.977 55.7876C161.29 55.5337 161.463 55.2163 161.497 54.8354H162.608C162.587 55.229 162.451 55.6035 162.202 55.959C161.952 56.3145 161.618 56.598 161.199 56.8096C160.784 57.0212 160.344 57.127 159.878 57.127C158.943 57.127 158.198 56.8159 157.644 56.1938C157.094 55.5675 156.819 54.7127 156.819 53.6294V53.4326C156.819 52.764 156.942 52.1694 157.187 51.6489C157.432 51.1284 157.784 50.7243 158.241 50.4365C158.702 50.1488 159.246 50.0049 159.872 50.0049C160.642 50.0049 161.281 50.2355 161.789 50.6968C162.301 51.158 162.574 51.7568 162.608 52.4932H161.497C161.463 52.0488 161.294 51.6849 160.989 51.4014C160.689 51.1136 160.316 50.9697 159.872 50.9697C159.275 50.9697 158.812 51.1855 158.482 51.6172C158.156 52.0446 157.993 52.6646 157.993 53.4771V53.6992C157.993 54.4906 158.156 55.0999 158.482 55.5273C158.808 55.9548 159.273 56.1685 159.878 56.1685ZM166.067 54.0737H165.21V57H164.03V50.1318H165.21V53.0391H165.979L168.289 50.1318H169.711L166.994 53.4326L169.939 57H168.448L166.067 54.0737ZM170.498 53.5024C170.498 52.8296 170.629 52.2244 170.892 51.687C171.158 51.1496 171.526 50.7349 171.996 50.4429C172.47 50.1509 173.01 50.0049 173.615 50.0049C174.55 50.0049 175.305 50.3286 175.881 50.9761C176.461 51.6235 176.75 52.4847 176.75 53.5596V53.6421C176.75 54.3107 176.621 54.9116 176.363 55.4448C176.109 55.9738 175.743 56.3864 175.265 56.6826C174.791 56.9788 174.245 57.127 173.627 57.127C172.696 57.127 171.941 56.8032 171.361 56.1558C170.786 55.5083 170.498 54.6514 170.498 53.585V53.5024ZM171.679 53.6421C171.679 54.4038 171.854 55.0153 172.206 55.4766C172.561 55.9378 173.035 56.1685 173.627 56.1685C174.224 56.1685 174.698 55.9357 175.049 55.4702C175.401 55.0005 175.576 54.3446 175.576 53.5024C175.576 52.7492 175.396 52.1398 175.037 51.6743C174.681 51.2046 174.207 50.9697 173.615 50.9697C173.035 50.9697 172.567 51.2004 172.212 51.6616C171.856 52.1229 171.679 52.783 171.679 53.6421ZM183.752 50.1318V57H182.571V51.103H180.235L180.096 53.6738C180.02 54.8545 179.821 55.6987 179.499 56.2065C179.182 56.7144 178.676 56.9788 177.982 57H177.512V55.9653L177.849 55.9399C178.229 55.8976 178.502 55.6776 178.667 55.2798C178.833 54.882 178.938 54.1457 178.985 53.0708L179.112 50.1318H183.752ZM186.919 52.4995H188.703C189.482 52.508 190.097 52.7111 190.55 53.1089C191.003 53.5067 191.229 54.0462 191.229 54.7275C191.229 55.4131 190.997 55.9632 190.531 56.3779C190.066 56.7926 189.439 57 188.652 57H185.745V50.1318H186.919V52.4995ZM186.919 53.458V56.0415H188.665C189.105 56.0415 189.446 55.9294 189.687 55.7051C189.928 55.4766 190.049 55.1655 190.049 54.772C190.049 54.3911 189.93 54.0801 189.693 53.8389C189.461 53.5934 189.133 53.4665 188.709 53.458H186.919ZM194.835 54.0737H193.978V57H192.797V50.1318H193.978V53.0391H194.746L197.057 50.1318H198.479L195.762 53.4326L198.707 57H197.215L194.835 54.0737ZM199.266 53.5024C199.266 52.8296 199.397 52.2244 199.659 51.687C199.926 51.1496 200.294 50.7349 200.764 50.4429C201.238 50.1509 201.777 50.0049 202.382 50.0049C203.318 50.0049 204.073 50.3286 204.648 50.9761C205.228 51.6235 205.518 52.4847 205.518 53.5596V53.6421C205.518 54.3107 205.389 54.9116 205.131 55.4448C204.877 55.9738 204.511 56.3864 204.033 56.6826C203.559 56.9788 203.013 57.127 202.395 57.127C201.464 57.127 200.709 56.8032 200.129 56.1558C199.553 55.5083 199.266 54.6514 199.266 53.585V53.5024ZM200.446 53.6421C200.446 54.4038 200.622 55.0153 200.973 55.4766C201.329 55.9378 201.803 56.1685 202.395 56.1685C202.992 56.1685 203.466 55.9357 203.817 55.4702C204.168 55.0005 204.344 54.3446 204.344 53.5024C204.344 52.7492 204.164 52.1398 203.804 51.6743C203.449 51.2046 202.975 50.9697 202.382 50.9697C201.803 50.9697 201.335 51.2004 200.979 51.6616C200.624 52.1229 200.446 52.783 200.446 53.6421ZM160.558 72H159.383V69.0674H156.229V72H155.048V65.1318H156.229V68.1089H159.383V65.1318H160.558V72ZM164.696 70.2798L166.296 65.1318H167.553L164.792 73.0601C164.364 74.2026 163.685 74.7739 162.754 74.7739L162.532 74.7549L162.094 74.6724V73.7202L162.411 73.7456C162.809 73.7456 163.118 73.6652 163.338 73.5044C163.562 73.3436 163.746 73.0495 163.89 72.6221L164.15 71.9238L161.7 65.1318H162.982L164.696 70.2798ZM174.084 69.0166H173.259V72H172.085V69.0166H171.26L169.336 72H167.851L170.308 68.4453L168.086 65.1318H169.508L171.279 67.9756H172.085V65.1318H173.259V67.9756H174.059L175.843 65.1318H177.265L175.037 68.4517L177.493 72H176.008L174.084 69.0166ZM181.283 72.127C180.352 72.127 179.594 71.8223 179.01 71.2129C178.426 70.5993 178.134 69.7804 178.134 68.7563V68.5405C178.134 67.8592 178.263 67.252 178.521 66.7188C178.784 66.1813 179.148 65.7624 179.613 65.4619C180.083 65.1572 180.591 65.0049 181.137 65.0049C182.03 65.0049 182.724 65.299 183.219 65.8872C183.714 66.4754 183.961 67.3175 183.961 68.4136V68.9023H179.309C179.326 69.5794 179.522 70.1274 179.899 70.5464C180.28 70.9611 180.762 71.1685 181.346 71.1685C181.761 71.1685 182.112 71.0838 182.4 70.9146C182.688 70.7453 182.939 70.521 183.155 70.2417L183.873 70.8003C183.297 71.6847 182.434 72.127 181.283 72.127ZM181.137 65.9697C180.663 65.9697 180.265 66.1432 179.943 66.4902C179.622 66.833 179.423 67.3154 179.347 67.9375H182.787V67.8486C182.753 67.252 182.592 66.7907 182.305 66.4648C182.017 66.1348 181.628 65.9697 181.137 65.9697ZM190.938 72H189.763V69.0674H186.608V72H185.428V65.1318H186.608V68.1089H189.763V65.1318H190.938V72Z" fill="#2D4059"/>
<circle cx="296.367" cy="16.8635" r="16.8635" fill="#2AB6DC"/>
<path d="M295.095 15.8776H296.124C296.614 15.8776 296.976 15.7552 297.212 15.5103C297.448 15.2655 297.566 14.9405 297.566 14.5353C297.566 14.1436 297.448 13.8386 297.212 13.6205C296.981 13.4023 296.66 13.2933 296.251 13.2933C295.881 13.2933 295.572 13.3957 295.323 13.6004C295.073 13.8008 294.949 14.0634 294.949 14.3884H293.019C293.019 13.8809 293.154 13.4268 293.426 13.0261C293.702 12.621 294.085 12.3049 294.575 12.0779C295.069 11.8508 295.612 11.7373 296.204 11.7373C297.232 11.7373 298.038 11.9844 298.621 12.4786C299.205 12.9683 299.496 13.645 299.496 14.5086C299.496 14.9538 299.36 15.3634 299.089 15.7374C298.817 16.1113 298.461 16.3985 298.02 16.5988C298.568 16.7947 298.975 17.0885 299.242 17.4803C299.514 17.8721 299.65 18.3351 299.65 18.8693C299.65 19.733 299.334 20.4253 298.702 20.9461C298.074 21.467 297.241 21.7275 296.204 21.7275C295.233 21.7275 294.439 21.4715 293.82 20.9595C293.206 20.4475 292.898 19.7708 292.898 18.9294H294.828C294.828 19.2945 294.964 19.5928 295.236 19.8243C295.512 20.0558 295.85 20.1715 296.251 20.1715C296.709 20.1715 297.068 20.0513 297.326 19.8109C297.589 19.566 297.72 19.2433 297.72 18.8426C297.72 17.8721 297.186 17.3868 296.117 17.3868H295.095V15.8776Z" fill="white"/>
<path d="M281.561 0.822266C267.165 18.5084 281.561 32.9041 281.561 32.9041" stroke="#D5D9DE"/>
<path d="M311.586 32.9043C325.982 15.2182 311.586 0.822478 311.586 0.822478" stroke="#D5D9DE"/>
<path d="M250.804 53.3818V57H249.585V47.7578H252.994C254.006 47.7578 254.797 48.016 255.368 48.5322C255.944 49.0485 256.231 49.7319 256.231 50.5825C256.231 51.4797 255.95 52.1715 255.387 52.6582C254.829 53.1406 254.027 53.3818 252.981 53.3818H250.804ZM250.804 52.3853H252.994C253.646 52.3853 254.145 52.2329 254.492 51.9282C254.839 51.6193 255.013 51.175 255.013 50.5952C255.013 50.0451 254.839 49.605 254.492 49.2749C254.145 48.9448 253.669 48.7734 253.064 48.7607H250.804V52.3853ZM260.364 57.127C259.433 57.127 258.675 56.8223 258.091 56.2129C257.507 55.5993 257.215 54.7804 257.215 53.7563V53.5405C257.215 52.8592 257.344 52.252 257.603 51.7188C257.865 51.1813 258.229 50.7624 258.694 50.4619C259.164 50.1572 259.672 50.0049 260.218 50.0049C261.111 50.0049 261.805 50.299 262.3 50.8872C262.795 51.4754 263.042 52.3175 263.042 53.4136V53.9023H258.39C258.407 54.5794 258.603 55.1274 258.98 55.5464C259.361 55.9611 259.843 56.1685 260.427 56.1685C260.842 56.1685 261.193 56.0838 261.481 55.9146C261.769 55.7453 262.021 55.521 262.236 55.2417L262.954 55.8003C262.378 56.6847 261.515 57.127 260.364 57.127ZM260.218 50.9697C259.744 50.9697 259.346 51.1432 259.024 51.4902C258.703 51.833 258.504 52.3154 258.428 52.9375H261.868V52.8486C261.834 52.252 261.674 51.7907 261.386 51.4648C261.098 51.1348 260.709 50.9697 260.218 50.9697ZM266.546 54.0737H265.689V57H264.509V50.1318H265.689V53.0391H266.458L268.768 50.1318H270.19L267.473 53.4326L270.418 57H268.927L266.546 54.0737ZM270.977 53.5024C270.977 52.8296 271.108 52.2244 271.371 51.687C271.637 51.1496 272.005 50.7349 272.475 50.4429C272.949 50.1509 273.489 50.0049 274.094 50.0049C275.029 50.0049 275.784 50.3286 276.36 50.9761C276.94 51.6235 277.229 52.4847 277.229 53.5596V53.6421C277.229 54.3107 277.1 54.9116 276.842 55.4448C276.588 55.9738 276.222 56.3864 275.744 56.6826C275.27 56.9788 274.724 57.127 274.106 57.127C273.175 57.127 272.42 56.8032 271.84 56.1558C271.265 55.5083 270.977 54.6514 270.977 53.585V53.5024ZM272.158 53.6421C272.158 54.4038 272.333 55.0153 272.685 55.4766C273.04 55.9378 273.514 56.1685 274.106 56.1685C274.703 56.1685 275.177 55.9357 275.528 55.4702C275.88 55.0005 276.055 54.3446 276.055 53.5024C276.055 52.7492 275.875 52.1398 275.516 51.6743C275.16 51.2046 274.686 50.9697 274.094 50.9697C273.514 50.9697 273.046 51.2004 272.691 51.6616C272.335 52.1229 272.158 52.783 272.158 53.6421ZM282.657 55.4448L284.993 50.1318H286.459V57H285.285V52.0044L283.063 57H282.25L279.984 51.8965V57H278.81V50.1318H280.333L282.657 55.4448ZM291.201 57.127C290.27 57.127 289.512 56.8223 288.928 56.2129C288.344 55.5993 288.052 54.7804 288.052 53.7563V53.5405C288.052 52.8592 288.181 52.252 288.439 51.7188C288.702 51.1813 289.066 50.7624 289.531 50.4619C290.001 50.1572 290.509 50.0049 291.055 50.0049C291.948 50.0049 292.642 50.299 293.137 50.8872C293.632 51.4754 293.879 52.3175 293.879 53.4136V53.9023H289.227C289.243 54.5794 289.44 55.1274 289.817 55.5464C290.198 55.9611 290.68 56.1685 291.264 56.1685C291.679 56.1685 292.03 56.0838 292.318 55.9146C292.606 55.7453 292.857 55.521 293.073 55.2417L293.791 55.8003C293.215 56.6847 292.352 57.127 291.201 57.127ZM291.055 50.9697C290.581 50.9697 290.183 51.1432 289.861 51.4902C289.54 51.833 289.341 52.3154 289.265 52.9375H292.705V52.8486C292.671 52.252 292.51 51.7907 292.223 51.4648C291.935 51.1348 291.546 50.9697 291.055 50.9697ZM300.855 57H299.681V54.0674H296.526V57H295.346V50.1318H296.526V53.1089H299.681V50.1318H300.855V57ZM302.69 56.0415L303.096 55.54C303.553 54.9476 303.813 54.0589 303.877 52.874L303.985 50.1318H308.409V56.0415H309.292V59.0186H308.117V57H303.325V59.0186H302.15L302.157 56.0415H302.69ZM304.08 56.0415H307.235V51.2173H305.121L305.051 52.855C304.979 54.2218 304.656 55.284 304.08 56.0415ZM314.833 57C314.765 56.8646 314.71 56.6234 314.668 56.2764C314.122 56.8434 313.47 57.127 312.713 57.127C312.036 57.127 311.479 56.9365 311.043 56.5557C310.612 56.1706 310.396 55.6839 310.396 55.0957C310.396 54.3805 310.667 53.8262 311.208 53.4326C311.754 53.0348 312.52 52.8359 313.506 52.8359H314.649V52.2964C314.649 51.8859 314.526 51.5601 314.281 51.3188C314.035 51.0734 313.674 50.9507 313.195 50.9507C312.776 50.9507 312.425 51.0565 312.142 51.2681C311.858 51.4797 311.716 51.7357 311.716 52.0361H310.536C310.536 51.6934 310.656 51.3633 310.897 51.0459C311.143 50.7243 311.473 50.4704 311.888 50.2842C312.307 50.098 312.766 50.0049 313.265 50.0049C314.056 50.0049 314.676 50.2038 315.125 50.6016C315.574 50.9951 315.806 51.5389 315.823 52.2329V55.394C315.823 56.0246 315.904 56.526 316.064 56.8984V57H314.833ZM312.884 56.105C313.252 56.105 313.602 56.0098 313.932 55.8193C314.262 55.6289 314.501 55.3813 314.649 55.0767V53.6675H313.729C312.29 53.6675 311.57 54.0885 311.57 54.9307C311.57 55.2988 311.693 55.5866 311.938 55.7939C312.184 56.0013 312.499 56.105 312.884 56.105ZM317.766 50.1318H318.946V56.0415H322.107V50.1318H323.282V56.0415H324.101L323.986 59.0376H322.933V57H317.766V50.1318ZM329.813 50.1318H330.988V57H329.813V51.9917L326.646 57H325.472V50.1318H326.646V55.1465L329.813 50.1318ZM337.316 50.1318H338.491V57H337.316V51.9917L334.149 57H332.975V50.1318H334.149V55.1465L337.316 50.1318Z" fill="#2D4059"/>
<rect x="78.25" y="18.25" width="69.5" height="0.5" stroke="#D5D9DE" stroke-width="0.5" stroke-dasharray="1 1"/>
<rect x="201.557" y="18.3477" width="69.5" height="0.5" stroke="#D5D9DE" stroke-width="0.5" stroke-dasharray="1 1"/>
</svg>
